<svg xmlns="http://www.w3.org/2000/svg" width="20" height="20" viewBox="0 0 20 20" fill="none">
  <path d="M16.6667 5V9.16667H12.5" stroke="#475569" stroke-width="1.5" stroke-linecap="round" stroke-linejoin="round"/>
  <path d="M3.33333 15V10.8333H7.5" stroke="#475569" stroke-width="1.5" stroke-linecap="round" stroke-linejoin="round"/>
  <path d="M5.16667 6.66667C5.49632 5.64467 6.10167 4.7335 6.91605 4.03355C7.73042 3.33359 8.7222 2.87202 9.78213 2.69967C10.8421 2.52733 11.929 2.6509 12.9232 3.05678C13.9174 3.46266 14.7802 4.1351 15.4167 5L16.6667 9.16667" stroke="#475569" stroke-width="1.5" stroke-linecap="round" stroke-linejoin="round"/>
  <path d="M14.8333 13.3333C14.5037 14.3553 13.8983 15.2665 13.084 15.9664C12.2696 16.6664 11.2778 17.128 10.2179 17.3003C9.15795 17.4727 8.07102 17.3491 7.07683 16.9432C6.08265 16.5373 5.2198 15.8649 4.58333 15L3.33333 10.8333" stroke="#475569" stroke-width="1.5" stroke-linecap="round" stroke-linejoin="round"/>
</svg>
